<svg width="555" height="524" viewBox="0 0 555 524" fill="none" xmlns="http://www.w3.org/2000/svg">
<path d="M362.372 510.894V516.591H193.43V511.968C198.062 510.231 202.447 507.896 206.473 505.022C213.648 499.886 219.494 493.112 223.527 485.264C227.559 477.417 229.663 468.72 229.662 459.897C229.665 455.287 229.086 450.695 227.938 446.23C225.895 438.194 222.078 430.717 216.769 424.348C211.459 417.98 204.791 412.88 197.253 409.425H361.222C353.685 412.88 347.017 417.98 341.707 424.348C336.397 430.717 332.581 438.194 330.538 446.23C329.398 450.696 328.827 455.288 328.838 459.897C328.833 468.719 330.931 477.414 334.96 485.262C338.988 493.11 344.831 499.884 352.002 505.022C355.244 507.335 358.72 509.303 362.372 510.894Z" fill="#DFE6F5"/>
<path opacity="0.1" d="M361.222 409.425C353.685 412.88 347.017 417.98 341.707 424.348C336.397 430.717 332.581 438.194 330.538 446.23H227.938C225.895 438.194 222.078 430.717 216.769 424.348C211.459 417.98 204.791 412.88 197.253 409.425H361.222Z" fill="black"/>
<path d="M0 380.316V412.398C0 430.088 12.9436 444.456 28.9358 444.456H525.967C541.959 444.456 554.927 430.088 554.927 412.398V380.316H0Z" fill="#DFE6F5"/>
<path opacity="0.1" d="M362.372 510.894V516.591H193.43V511.968C198.062 510.231 202.447 507.896 206.473 505.022H352.002C355.244 507.335 358.72 509.303 362.372 510.894Z" fill="black"/>
<path d="M409.724 506.796H146.078C141.4 506.796 137.607 510.583 137.607 515.254C137.607 519.925 141.4 523.712 146.078 523.712H409.724C414.402 523.712 418.195 519.925 418.195 515.254C418.195 510.583 414.402 506.796 409.724 506.796Z" fill="#DFE6F5"/>
<path d="M554.927 28.9341C554.927 25.1323 554.178 21.3678 552.722 17.8558C551.267 14.3437 549.133 11.1529 546.443 8.46577C543.754 5.77867 540.561 3.64791 537.048 2.19531C533.534 0.742702 529.769 -0.00327225 525.967 1.08081e-05H28.9358C25.1349 -0.00327549 21.3707 0.742892 17.8586 2.1958C14.3465 3.64871 11.1554 5.77987 8.46776 8.4673C5.78017 11.1547 3.64889 14.3457 2.19589 17.8576C0.742898 21.3695 -0.00327568 25.1335 1.08093e-05 28.9341V386.562H554.927V28.9341Z" fill="#474157"/>
<path d="M539.785 41.852V349.183C539.788 351.055 539.422 352.91 538.708 354.641C537.994 356.372 536.945 357.945 535.622 359.27C534.299 360.595 532.728 361.646 530.998 362.364C529.268 363.081 527.414 363.45 525.542 363.45H29.3855C27.513 363.45 25.6589 363.081 23.9292 362.364C22.1995 361.646 20.6283 360.595 19.3054 359.27C17.9825 357.945 16.9338 356.372 16.2195 354.641C15.5052 352.91 15.1393 351.055 15.1426 349.183V41.852C15.1302 39.3515 15.7858 36.8932 17.0416 34.7309C18.2924 32.5645 20.0919 30.7657 22.2589 29.5156C24.4258 28.2655 26.8838 27.6082 29.3855 27.6098H525.542C529.319 27.6098 532.942 29.1103 535.613 31.7813C538.284 34.4522 539.785 38.0747 539.785 41.852Z" fill="#4C4C78"/>
<path d="M277.464 20.4638C281.148 20.4638 284.135 17.4769 284.135 13.7924C284.135 10.1079 281.148 7.12104 277.464 7.12104C273.779 7.12104 270.792 10.1079 270.792 13.7924C270.792 17.4769 273.779 20.4638 277.464 20.4638Z" fill="white"/>
<path d="M277.464 430.188C286.558 430.188 293.931 422.816 293.931 413.722C293.931 404.629 286.558 397.257 277.464 397.257C268.369 397.257 260.997 404.629 260.997 413.722C260.997 422.816 268.369 430.188 277.464 430.188Z" fill="white"/>
<path d="M539.785 41.852H15.1924C15.1924 38.0747 16.693 34.4522 19.3641 31.7813C22.0352 29.1103 25.658 27.6098 29.4354 27.6098H525.542C529.319 27.6098 532.942 29.1103 535.613 31.7813C538.284 34.4522 539.785 38.0747 539.785 41.852Z" fill="#C8CAD7"/>
<path d="M29.3855 38.3039C31.3589 38.3039 32.9587 36.7042 32.9587 34.7309C32.9587 32.7576 31.3589 31.1579 29.3855 31.1579C27.412 31.1579 25.8122 32.7576 25.8122 34.7309C25.8122 36.7042 27.412 38.3039 29.3855 38.3039Z" fill="#FF0000"/>
<path d="M40.0802 38.3039C42.0537 38.3039 43.6535 36.7042 43.6535 34.7309C43.6535 32.7576 42.0537 31.1579 40.0802 31.1579C38.1068 31.1579 36.507 32.7576 36.507 34.7309C36.507 36.7042 38.1068 38.3039 40.0802 38.3039Z" fill="#F0CA44"/>
<path d="M50.7749 38.3039C52.7484 38.3039 54.3482 36.7042 54.3482 34.7309C54.3482 32.7576 52.7484 31.1579 50.7749 31.1579C48.8015 31.1579 47.2017 32.7576 47.2017 34.7309C47.2017 36.7042 48.8015 38.3039 50.7749 38.3039Z" fill="#11D000"/>
</svg>
