<svg width="719" height="669" viewBox="0 0 719 669" fill="none" xmlns="http://www.w3.org/2000/svg">
<path d="M177.458 417.56C219.383 388.204 219.675 413.225 234.294 434.104C248.914 454.983 272.326 463.814 230.401 493.17C188.476 522.526 82.4712 540.411 82.4712 540.411C82.4712 540.411 135.534 446.916 177.458 417.56Z" fill="#FECA57"/>
<path d="M207.938 426.949C226.995 413.606 227.127 424.979 233.772 434.469C240.418 443.959 251.059 447.974 232.003 461.317C212.946 474.661 164.762 482.791 164.762 482.791C164.762 482.791 188.881 440.293 207.938 426.949Z" fill="#FF9F43"/>
<path d="M254.274 340.903C252.754 339.63 251.108 338.517 249.361 337.579C210.441 316.683 128.73 386.14 128.73 386.14L120.966 376.888C120.966 376.888 153.777 344.392 193.422 289.491C229.079 240.082 308.996 252.959 324.68 256.031C326.436 256.385 327.389 256.598 327.389 256.598C349.67 318.412 254.274 340.903 254.274 340.903Z" fill="#0ABDE3"/>
<path opacity="0.2" d="M328.846 261.233C328.433 259.723 327.967 258.198 327.402 256.637C327.402 256.637 326.458 256.435 324.692 256.07C309.008 252.998 229.091 240.121 193.435 289.53C153.789 344.431 120.966 376.888 120.966 376.888L125.332 382.091C125.332 382.091 158.167 349.624 197.788 294.694C233.274 245.508 312.658 258.057 328.846 261.233Z" fill="white"/>
<path d="M374.665 505.511C313.689 534.992 276.041 561.698 276.041 561.698L268.262 552.429C268.262 552.429 354.608 480.969 335.969 439.292C335.576 438.38 335.127 437.493 334.625 436.637C334.625 436.637 373.324 346.578 430.334 379.282C430.334 379.282 430.379 380.058 430.409 381.502C430.748 396.141 430.147 478.665 374.665 505.511Z" fill="#0ABDE3"/>
<path opacity="0.1" d="M254.274 340.903C252.754 339.63 251.108 338.517 249.361 337.579C272.4 308.565 297.572 281.31 324.668 256.041C326.424 256.395 327.377 256.608 327.377 256.608C349.67 318.412 254.274 340.903 254.274 340.903Z" fill="black"/>
<path opacity="0.1" d="M430.412 381.53C400.536 403.316 368.945 422.649 335.949 439.339C335.556 438.427 335.107 437.54 334.604 436.684C334.604 436.684 373.304 346.625 430.313 379.329C430.322 379.292 430.367 380.068 430.412 381.53Z" fill="black"/>
<path d="M319.827 444.844C304.217 452.382 287.802 459.64 270.582 466.616C270.582 466.616 231.439 463.996 210.938 395.535C210.938 395.535 220.882 378.633 240.316 352.914C283.033 296.349 371.644 197.144 501.302 141.297C540.206 124.42 581.087 112.528 622.973 105.902C622.973 105.902 614.77 158.021 572.785 226.451C530.8 294.882 455.003 379.611 319.827 444.844Z" fill="#E3E8F4"/>
<path d="M413.723 288.682C433.064 311.731 467.427 314.738 490.476 295.397C513.525 276.057 516.532 241.693 497.191 218.644C477.851 195.595 443.487 192.589 420.438 211.929C397.389 231.27 394.383 265.633 413.723 288.682Z" fill="#AFC0E0"/>
<path d="M480.269 283.281C474.664 287.983 467.839 290.998 460.588 291.974C453.337 292.95 445.958 291.847 439.309 288.793C432.66 285.74 427.015 280.861 423.03 274.724C419.046 268.588 416.885 261.447 416.8 254.131C416.767 250.552 417.226 246.987 418.165 243.534C418.581 241.987 419.094 240.469 419.701 238.988C422.076 233.213 425.817 228.101 430.603 224.091C430.842 223.891 431.075 223.695 431.308 223.5C437.765 218.34 445.704 215.385 453.963 215.066C462.221 214.747 470.365 217.081 477.2 221.727C479.793 223.515 482.166 225.604 484.268 227.949L485.011 228.835C488.276 232.721 490.743 237.212 492.271 242.051C493.8 246.891 494.36 251.984 493.919 257.04C493.479 262.096 492.047 267.016 489.705 271.518C487.363 276.021 484.156 280.018 480.269 283.281Z" fill="#00B0FF"/>
<path d="M572.78 226.445C510.378 198.117 501.295 141.253 501.295 141.253C540.203 124.391 581.087 112.513 622.973 105.902C622.973 105.902 614.77 158.021 572.78 226.445Z" fill="#0ABDE3"/>
<path d="M319.827 444.844C309.253 449.943 298.318 454.916 287.021 459.762C281.639 462.08 276.164 464.358 270.595 466.595C270.595 466.595 231.452 463.975 210.951 395.514C210.951 395.514 214.179 390.026 220.533 380.524C225.348 373.366 231.949 363.945 240.314 352.876C240.314 352.876 248.029 378.292 270.317 404.854C284.03 421.311 300.854 434.9 319.827 444.844Z" fill="#0ABDE3"/>
<path d="M287.021 459.762C281.639 462.08 276.164 464.358 270.595 466.595C270.595 466.595 231.452 463.975 210.951 395.514C210.951 395.514 214.179 390.026 220.533 380.524C220.528 380.518 248.78 444.124 287.021 459.762Z" fill="#E3E8F4"/>
<path opacity="0.2" d="M477.256 221.711L477.155 221.686L431.359 223.477C431.126 223.672 430.893 223.868 430.654 224.068C425.868 228.078 422.126 233.19 419.752 238.965L484.333 227.944L477.256 221.711Z" fill="white"/>
<path opacity="0.2" d="M457.761 250.085L416.623 254.6C416.59 251.022 417.049 247.456 417.987 244.003L458.1 246.087L457.761 250.085Z" fill="white"/>
<path opacity="0.2" d="M219.802 407.259C219.802 407.259 229.752 390.352 249.18 364.637C291.903 308.068 380.514 208.863 510.172 153.016C545.209 137.85 581.852 126.705 619.399 119.793C621.618 111.21 622.37 106.379 622.37 106.379C580.49 112.995 539.613 124.876 500.712 141.742C371.054 197.589 282.443 296.794 239.72 353.364C220.292 379.078 210.343 395.985 210.343 395.985C218.45 423.029 229.459 439.793 239.811 450.19C232.512 440.012 225.461 426.131 219.802 407.259Z" fill="white"/>
<path d="M311.354 350.31C311.18 350.394 310.764 350.591 310.105 350.899C309.446 351.208 308.606 351.683 307.584 352.326C306.563 352.968 305.523 353.734 304.464 354.623C301.519 357.094 300.208 360.106 300.529 363.661C300.835 367.198 302.886 371.229 306.683 375.754C310.328 380.099 313.826 382.625 317.174 383.334C320.507 384.025 323.682 383.105 326.698 380.574C328.314 379.218 329.67 377.607 330.765 375.739C331.845 373.854 332.655 372.103 333.196 370.487C333.754 368.856 334.003 368.004 333.943 367.932L341.144 370.334C341.235 370.442 341.032 371.622 340.535 373.874C340.024 376.109 339.076 378.571 337.693 381.262C336.295 383.934 334.312 386.348 331.744 388.502C326.125 393.217 320.386 395.202 314.529 394.457C308.657 393.694 303.054 390.134 297.721 383.778C294.135 379.505 291.802 375.175 290.722 370.789C289.642 366.402 289.8 362.215 291.197 358.229C292.612 354.227 295.196 350.651 298.948 347.503C300.941 345.83 303.046 344.401 305.262 343.214C307.464 342.009 309.461 341.053 311.253 340.344C313.03 339.618 313.933 339.273 313.964 339.309L322.485 350.011L317.072 354.553L311.354 350.31ZM345.83 367.55L348.576 362.4L326.837 336.492L321.288 338.303L317.356 333.617L329.815 322.704L345.273 309.732L354.064 320.209L348.92 324.525L344.315 321.826L335.374 329.329L343.464 338.97L354.883 329.388L359.99 335.475L348.571 345.056L357.113 355.237L363.604 352.635L367.536 357.321L349.762 372.236L345.83 367.55ZM385.284 334.444L388.003 329.317L382.038 322.207L356.029 311.721L351.182 313.219L347.25 308.533L362.644 295.157L366.802 300.112L364.946 303.643L380.433 310.887L376.379 294.187L372.323 295.479L368.391 290.793L383.058 278.027L387.216 282.983L384.657 287.7L390.557 314.967L396.568 322.13L402.089 320.343L406.021 325.029L389.216 339.13L385.284 334.444Z" fill="#48DBFB"/>
</svg>
